<?xml version="1.0"?>
<svg xmlns="http://www.w3.org/2000/svg" id="outline" viewBox="0 0 512 512" width="512" height="512"><path d="M168,160a8.00917,8.00917,0,0,1-8,8h-8v16h8a24.0275,24.0275,0,0,0,24-24v-8H168Z"/><circle cx="144" cy="136" r="8"/><circle cx="192" cy="136" r="8"/><path d="M80.92261,250.59436l-2.36792,1.184A40.11741,40.11741,0,0,0,60.0293,271.00293L24.7168,348.68945a8.00043,8.00043,0,0,0,3.39843,10.30371l3.6084,2.00489L24.1084,406.68457a8.00441,8.00441,0,0,0,2.23437,6.97217l24,24A8.00076,8.00076,0,0,0,56,440H94.77563l-6.69555,46.86865A7.9999,7.9999,0,0,0,96,496H240a8.00015,8.00015,0,0,0,7.95117-8.8833l-6.4751-58.27612,6.83057,13.66137,7.80176,46.813A8.00048,8.00048,0,0,0,264,496h32a8.00008,8.00008,0,0,0,8-8V416a8.0122,8.0122,0,0,0-.41016-2.52979l-14.65063-43.95178,18.94556-10.52527a8.00043,8.00043,0,0,0,3.39843-10.30371l-35.3125-77.68554a40.11525,40.11525,0,0,0-18.52539-19.22559l-2.36792-1.184L252.001,235.21484a54.033,54.033,0,0,1,4.63281-34.59375A70.1224,70.1224,0,0,0,264,169.41748V112a96,96,0,0,0-192,0v57.41748a70.11887,70.11887,0,0,0,7.36621,31.20313A54.03278,54.03278,0,0,1,83.999,235.21387ZM168,208a48.054,48.054,0,0,1-48-48V119.51123a65.7772,65.7772,0,0,0,25.83594-8.8833L168,97.32959l22.16406,13.29834A65.7772,65.7772,0,0,0,216,119.51123V160A48.054,48.054,0,0,1,168,208Zm0,16a63.72634,63.72634,0,0,0,19.84521-3.165l2.7417,8.2251-8.18652,6.14014a24.12544,24.12544,0,0,1-28.80078,0l-8.18652-6.14014,2.7417-8.2251A63.72634,63.72634,0,0,0,168,224Zm56,136.9707V372.686l-10.34277-10.34278A8.00076,8.00076,0,0,0,208,360v-7.0293a32.75533,32.75533,0,0,1,9.65723-23.314A48.634,48.634,0,0,0,231.99023,296H248v7.0293a32.75533,32.75533,0,0,1-9.65723,23.314A48.65034,48.65034,0,0,0,224,360.9707Zm-48,11.71558L164.68652,384H160v-9.53711A54.13648,54.13648,0,0,0,127.15137,324.647,38.15636,38.15636,0,0,1,104,289.53711V256.94434l16-8v24.59277A54.13648,54.13648,0,0,0,152.84863,323.353,38.15636,38.15636,0,0,1,176,358.46289Zm-65.34375-1.12378-6.53516-9.80371A48.35563,48.35563,0,0,1,97.44336,323.21l.56738-2.27A54.13771,54.13771,0,0,0,120.84863,339.353,38.15636,38.15636,0,0,1,144,374.46289V384H112v-8A8.001,8.001,0,0,0,110.65625,371.5625ZM74.5957,277.62305a24.07091,24.07091,0,0,1,11.11524-11.53418L88,264.94434v24.59277c0,1.56421.07471,3.11548.2063,4.65405l-6.2854,25.13892a64.3553,64.3553,0,0,0,8.88769,51.3042l5.17237,7.75891-53.644-29.80188ZM40.56836,405.25439l6.001-36.00878,53.54589,29.74755A8.00029,8.00029,0,0,0,104,400h64a8.00076,8.00076,0,0,0,5.65723-2.34326L195.31348,376h9.373L224,395.31348v15.27L190.459,424H59.31348ZM105.22363,480l5.71485-40H192a7.99723,7.99723,0,0,0,2.9707-.57227l30.239-12.0957L231.06152,480ZM288,417.29834V480H270.77734l-6.88574-41.31494a8.02761,8.02761,0,0,0-.73633-2.2627l-20.5747-41.14917,32.12793-17.84875ZM261.4043,277.624l32.25879,70.96729L240,378.40417V360.9707a32.75533,32.75533,0,0,1,9.65723-23.314A48.65034,48.65034,0,0,0,264,303.0293V288a8.00008,8.00008,0,0,0-8-8H224a8.00008,8.00008,0,0,0-8,8v7.0293a32.75533,32.75533,0,0,1-9.65723,23.314A48.65034,48.65034,0,0,0,192,352.9707v5.49219A54.13648,54.13648,0,0,0,159.15137,308.647,38.15636,38.15636,0,0,1,136,273.53711V241.99976L144,248a40.20657,40.20657,0,0,0,48,0l8.84448-6.63354,49.44458,24.72241A24.06878,24.06878,0,0,1,261.4043,277.624ZM88,112a80,80,0,0,1,160,0v57.41748a54.04414,54.04414,0,0,1-5.67676,24.04785,70.11085,70.11085,0,0,0-6.01172,44.88721l.63526,3.17651L206.542,226.32666l-4.13476-12.40478A63.99059,63.99059,0,0,0,232,160V112a8.00008,8.00008,0,0,0-8-8,49.77283,49.77283,0,0,1-25.60352-7.0918L172.11621,81.14014a7.99892,7.99892,0,0,0-8.23242,0L137.60352,96.9082A49.77283,49.77283,0,0,1,112,104a8.00008,8.00008,0,0,0-8,8v48a63.99059,63.99059,0,0,0,29.59277,53.92188L129.458,226.32666,99.053,241.5293l.6355-3.17774a70.10878,70.10878,0,0,0-6.01172-44.88623A54.04414,54.04414,0,0,1,88,169.41748Z"/><path d="M368,168a8.00071,8.00071,0,0,0-7.58984,5.47021l-6.86328,20.5918-52.69825,22.585A7.99956,7.99956,0,0,0,296,224a192.32814,192.32814,0,0,0,31.75684,106.03735L312.04,487.2041A7.99928,7.99928,0,0,0,320,496H464a7.99928,7.99928,0,0,0,7.96-8.7959l-15.7168-157.16723A192.327,192.327,0,0,0,488,224a7.99956,7.99956,0,0,0-4.84863-7.353l-52.69825-22.585-6.86328-20.5918A8.00071,8.00071,0,0,0,416,168H400v-9.37622a24,24,0,1,0-16,0V168Zm24-40a8,8,0,1,1-8,8A8.00917,8.00917,0,0,1,392,128ZM328.83984,480,343.2395,336h97.521l14.39966,144ZM443.69629,320H340.30371a176.30574,176.30574,0,0,1-28.22656-90.75781l21.7334-9.31446A65.46815,65.46815,0,0,0,387.77734,248h8.44532a65.46815,65.46815,0,0,0,53.96679-28.07227l21.7334,9.31446A176.32055,176.32055,0,0,1,443.69629,320ZM416.41016,202.52979a7.99887,7.99887,0,0,0,4.43847,4.82324l14.21631,6.09277A49.576,49.576,0,0,1,396.22266,232h-8.44532a49.576,49.576,0,0,1-38.84228-18.5542l14.21631-6.09277a7.99887,7.99887,0,0,0,4.43847-4.82324L373.76562,184h36.46876Z"/></svg>
